<?xml version="1.0" standalone="no"?>
<!DOCTYPE svg PUBLIC "-//W3C//DTD SVG 20010904//EN"
 "http://www.w3.org/TR/2001/REC-SVG-20010904/DTD/svg10.dtd">
<svg version="1.0" xmlns="http://www.w3.org/2000/svg"
 width="250.000000pt" height="250.000000pt" viewBox="0 0 250.000000 250.000000"
 preserveAspectRatio="xMidYMid meet">
<metadata>
Created by potrace 1.14, written by Peter Selinger 2001-2017
</metadata>
<g transform="translate(0.000000,250.000000) scale(0.100000,-0.100000)"
fill="#000000" stroke="none">
<path d="M0 1250 l0 -1250 1250 0 1250 0 0 1250 0 1250 -1250 0 -1250 0 0
-1250z m1081 8 c61 -189 113 -346 116 -350 2 -5 -43 -8 -100 -8 l-105 0 -18
65 -19 65 -117 0 -116 0 -19 -62 -19 -63 -103 -3 c-81 -2 -102 0 -98 10 2 7
52 159 111 338 59 179 109 331 111 338 3 9 39 12 134 12 l130 0 112 -342z
m824 312 c66 -33 95 -77 95 -144 0 -67 -26 -108 -87 -140 -37 -19 -43 -25 -25
-26 41 0 96 -36 120 -78 59 -106 -5 -237 -133 -271 -22 -6 -124 -11 -227 -11
l-188 0 0 351 0 351 198 -4 c187 -3 200 -4 247 -28z"/>
<path d="M802 1293 c-18 -58 -30 -108 -28 -110 2 -2 33 -3 69 -1 l64 3 -29
100 c-17 55 -33 103 -37 108 -4 4 -22 -41 -39 -100z"/>
<path d="M1650 1385 l0 -65 60 0 c47 0 64 4 80 20 51 51 4 110 -86 110 l-54 0
0 -65z"/>
<path d="M1650 1125 l0 -77 69 4 c50 2 75 9 90 22 26 24 27 66 2 97 -16 19
-30 24 -90 27 l-71 4 0 -77z"/>
</g>
</svg>
