<svg width="515" height="352" viewBox="0 0 515 352" fill="none" xmlns="http://www.w3.org/2000/svg">
<rect width="515" height="352" fill="white"/>
<rect x="244" y="74" width="79" height="77" fill="#D7E5A2"/>
<rect x="158" y="74" width="79" height="77" fill="#D7E5A2"/>
<rect x="158" y="156" width="79" height="77" fill="#D7E5A2"/>
<rect x="244" y="156" width="79" height="77" fill="#D7E5A2"/>
<path d="M204.226 92.7273H209.146V107.841C209.146 109.538 208.741 111.023 207.93 112.295C207.127 113.568 206.002 114.561 204.555 115.273C203.108 115.977 201.423 116.33 199.499 116.33C197.567 116.33 195.877 115.977 194.43 115.273C192.983 114.561 191.858 113.568 191.055 112.295C190.252 111.023 189.851 109.538 189.851 107.841V92.7273H194.771V107.42C194.771 108.307 194.964 109.095 195.351 109.784C195.745 110.473 196.298 111.015 197.01 111.409C197.722 111.803 198.552 112 199.499 112C200.453 112 201.283 111.803 201.987 111.409C202.699 111.015 203.249 110.473 203.635 109.784C204.029 109.095 204.226 108.307 204.226 107.42V92.7273Z" fill="#D23333"/>
<path d="M190.726 208V184.727H206.408V188.784H195.646V194.33H205.601V198.386H195.646V203.943H206.453V208H190.726Z" fill="#D23333"/>
<path d="M282.783 103.25C282.624 102.697 282.4 102.208 282.112 101.784C281.824 101.352 281.472 100.989 281.055 100.693C280.646 100.39 280.177 100.159 279.646 100C279.124 99.8409 278.544 99.7614 277.908 99.7614C276.718 99.7614 275.673 100.057 274.771 100.648C273.877 101.239 273.18 102.098 272.68 103.227C272.18 104.348 271.93 105.72 271.93 107.341C271.93 108.962 272.177 110.341 272.669 111.477C273.161 112.614 273.858 113.481 274.76 114.08C275.661 114.67 276.726 114.966 277.953 114.966C279.067 114.966 280.018 114.769 280.805 114.375C281.601 113.973 282.207 113.409 282.624 112.682C283.048 111.955 283.26 111.095 283.26 110.102L284.26 110.25H278.26V106.545H287.999V109.477C287.999 111.523 287.567 113.28 286.703 114.75C285.839 116.212 284.65 117.341 283.135 118.136C281.62 118.924 279.885 119.318 277.93 119.318C275.749 119.318 273.832 118.837 272.18 117.875C270.529 116.905 269.241 115.53 268.317 113.75C267.4 111.962 266.942 109.841 266.942 107.386C266.942 105.5 267.214 103.818 267.76 102.341C268.313 100.856 269.086 99.5985 270.078 98.5682C271.071 97.5379 272.226 96.7538 273.544 96.2159C274.862 95.678 276.29 95.4091 277.828 95.4091C279.146 95.4091 280.374 95.6023 281.51 95.9886C282.646 96.3674 283.654 96.9053 284.533 97.6023C285.419 98.2992 286.143 99.1288 286.703 100.091C287.264 101.045 287.624 102.098 287.783 103.25H282.783Z" fill="#D23333"/>
<path d="M293.223 179.727V203H288.973L278.848 188.352H278.678V203H273.757V179.727H278.075L288.121 194.364H288.325V179.727H293.223Z" fill="#D23333"/>
</svg>
